# xmcd CD database file
#
# Track frame offsets:
#	150
#	20250
#	32475
#
# Disc length: 697 seconds
#
# Revision: 0
# Processed by: cddbd v1.5PL3 Copyright (c) Steve Scherf et al.
# Submitted via: CDex 1.51
#
DISCID=1502b703
DTITLE=PENICILLIN - NICE IN LIP and L
DYEAR=1999
DGENRE=JPop
TTITLE0=NICE IN LIP and L
TTITLE1=X･X･X (Born in 1995)
TTITLE2=NICE IN LIP and L (No Vocal Edition)
EXTD=YEAR: 1999
EXTT0=
EXTT1=
EXTT2=
PLAYORDER=
